<svg xmlns="http://www.w3.org/2000/svg" width="180" height="81" fill="none">
    <path fill="#00B5FD"
        d="M100 0c16.569 0 30 13.431 30 30 0 16.569-13.431 30-30 30-16.568 0-30-13.431-30-30 0-16.569 13.432-30 30-30Zm0 10c-11.046 0-20 8.954-20 20s8.954 20 20 20 20-8.954 20-20-8.954-20-20-20Z" />
    <path fill="#DA1C5C"
        d="M165.068.05c8.258.02 14.94 6.726 14.932 14.984-.008 8.259-6.704 14.951-14.963 14.955l-5.01.002V65c0 8.268-6.703 14.97-14.97 14.97-8.268 0-14.97-6.703-14.97-14.97V30.007l-5.065.002h-.014c-8.266.005-14.971-6.692-14.978-14.958-.006-8.266 6.689-14.973 14.955-14.982l18.864-.017c.417-.034.837-.053 1.259-.052l19.96.05Zm-19.985 9.93a4.893 4.893 0 0 0-.707.05H125l-.257.006A4.99 4.99 0 0 0 125 20.01h15.068V65a4.99 4.99 0 1 0 9.979 0V20.01H165a4.99 4.99 0 0 0 .013-9.98l-19.93-.05Z" />
    <path fill="#EE2A7B"
        d="M30 .03C46.576.03 59.97 13.424 59.97 30S46.576 59.97 30 59.97l-.06-.001V65c0 8.268-6.703 14.97-14.97 14.97C6.702 79.97 0 73.268 0 65V30C0 13.385 13.463.03 30 .03Zm0 9.98C18.95 10.01 9.98 18.923 9.98 30v35a4.99 4.99 0 0 0 9.98 0V30c0-5.54 4.475-10.01 10.04-10.01A9.98 9.98 0 0 1 40.01 30 9.98 9.98 0 0 1 30 40.01v9.98c11.064 0 19.99-8.926 19.99-19.99 0-11.064-8.926-19.99-19.99-19.99Zm-.046 19.963h.001a.038.038 0 0 0-.014.01L29.94 30v.016a.07.07 0 0 0 .015.011c.002 0 .016.003.045.003l.028-.002.002-.028-.002-.03a.433.433 0 0 0-.074.003Z" />
    <path fill="#BE1E2D"
        d="M65 .03C73.268.03 79.97 6.733 79.97 15v15c0 11.318 9.377 20.03 20.03 20.03 8.268 0 14.97 6.703 14.97 14.97 0 8.268-6.702 14.97-14.97 14.97-26.347 0-49.97-21.288-49.97-49.97V15C50.03 6.732 56.733.03 65 .03Zm0 9.98A4.99 4.99 0 0 0 60.01 15v15c0 21.116 17.096 39.99 39.99 39.99a4.99 4.99 0 0 0 0-9.98c-17.106 0-30.01-14.126-30.01-30.01V15A4.99 4.99 0 0 0 65 10.01Z" />
    <path fill="#00B5FD"
        d="M100 0c16.569 0 30 13.431 30 30 0 16.569-13.431 30-30 30-16.568 0-30-13.431-30-30 0-16.569 13.432-30 30-30Zm0 10c-11.046 0-20 8.954-20 20s8.954 20 20 20 20-8.954 20-20-8.954-20-20-20Z"
        style="mix-blend-mode:color" />
    <path fill="#00ABF3" d="M110 30c0 5.523-4.477 10-10 10s-10-4.477-10-10 4.477-10 10-10 10 4.477 10 10Z" />
</svg>