<svg width="180" height="80" viewBox="0 0 180 80" fill="none" xmlns="http://www.w3.org/2000/svg">
<path d="M100 4.14848e-05C116.569 0.000107457 130 13.4315 130 30C130 46.5685 116.569 60 100 60C83.4316 60 70.0001 46.5686 70.0001 30C70.0001 13.4315 83.4316 4.14848e-05 100 4.14848e-05ZM100 10C88.9544 10 80.0001 18.9543 80.0001 30C80.0001 41.0457 88.9544 50 100 50C111.046 50 120 41.0457 120 30C120 18.9544 111.046 10.0001 100 10Z" fill="#00B5FD"/>
<path d="M165.068 0.0498462C173.326 0.0705542 180.008 6.77569 180 15.0342C179.992 23.293 173.296 29.9851 165.037 29.9893L160.027 29.9913V65C160.027 73.2676 153.324 79.9697 145.057 79.9698C136.789 79.9695 130.087 73.2674 130.087 65V30.0069L125.022 30.0088L125.015 30.0098L125.014 30.0088L125.008 30.0098C116.742 30.0139 110.037 23.3169 110.03 15.0508C110.024 6.78474 116.719 0.077603 124.985 0.0693774L143.849 0.0517993C144.266 0.0176543 144.686 -0.00100137 145.108 4.14853e-05L165.068 0.0498462ZM145.083 9.97953C144.845 9.97894 144.609 9.99662 144.376 10.0293H125L124.743 10.0362C122.107 10.1698 120.01 12.3499 120.01 15.0196C120.01 17.7754 122.244 20.0098 125 20.0098H140.068V65C140.068 67.7557 142.301 69.99 145.057 69.9903C147.813 69.9902 150.047 67.7558 150.047 65V20.0098H165C167.753 20.0097 169.987 17.7788 169.99 15.0254C169.993 12.2724 167.766 10.0364 165.013 10.0293L145.083 9.97953Z" fill="#DA1C5C"/>
<path d="M65.0001 0.0303149C73.2676 0.0303809 79.9698 6.7325 79.9698 15V30C79.9698 41.3184 89.3475 50.0303 100 50.0303C108.268 50.0304 114.97 56.7325 114.97 65C114.97 73.2676 108.268 79.9697 100 79.9698C73.6527 79.9698 50.0304 58.6816 50.0304 30V15C50.0304 6.73246 56.7325 0.0303149 65.0001 0.0303149ZM65.0001 10.0098C62.2443 10.0098 60.0099 12.2442 60.0099 15V30C60.0099 51.1158 77.1063 69.9903 100 69.9903C102.756 69.9902 104.99 67.7559 104.99 65C104.99 62.2442 102.756 60.0099 100 60.0098C82.894 60.0098 69.9904 45.8842 69.9904 30V15C69.9904 12.2442 67.7559 10.0099 65.0001 10.0098Z" fill="#BE1E2D"/>
<path d="M30.0001 0.0303149C46.5759 0.0303807 59.9698 13.4243 59.9698 30C59.9698 46.5758 46.5759 59.9697 30.0001 59.9698C29.98 59.9698 29.9597 59.9688 29.9396 59.9688V65C29.9396 73.2676 23.2374 79.9698 14.9698 79.9698C6.70227 79.9698 0.000122586 73.2676 0.00012207 65V30C0.00012207 13.3851 13.4635 0.0303149 30.0001 0.0303149ZM30.0001 10.0098C18.9491 10.0098 9.97961 18.9229 9.97961 30V65C9.97961 67.7559 12.214 69.9903 14.9698 69.9903C17.7257 69.9903 19.9601 67.7559 19.9601 65V30C19.9601 24.4607 24.4347 19.9903 30.0001 19.9903C35.5524 19.9903 40.0099 24.4477 40.0099 30C40.0099 35.5524 35.5524 40.0097 30.0001 40.0098V49.9903C41.0642 49.9902 49.9904 41.0641 49.9904 30C49.9904 18.936 41.0642 10.0099 30.0001 10.0098ZM29.9542 29.9727H29.9552C29.9539 29.9734 29.948 29.9762 29.9406 29.9834C29.9403 29.9879 29.9396 29.9934 29.9396 30C29.9396 30.0062 29.9404 30.0114 29.9406 30.0157C29.9482 30.0233 29.9539 30.0267 29.9552 30.0274H29.9542C29.9568 30.0279 29.9709 30.0303 30.0001 30.0303C30.0128 30.0303 30.0221 30.0289 30.0284 30.0284C30.0289 30.022 30.0304 30.0127 30.0304 30C30.0304 29.9867 30.029 29.9771 30.0284 29.9707C30.0221 29.9703 30.0127 29.9698 30.0001 29.9698C29.9709 29.9698 29.9568 29.9722 29.9542 29.9727Z" fill="#EE2A7B"/>
<g style="mix-blend-mode:color">
<path d="M100 4.14848e-05C116.569 0.000107457 130 13.4315 130 30C130 46.5685 116.569 60 100 60C83.4316 60 70.0001 46.5686 70.0001 30C70.0001 13.4315 83.4316 4.14848e-05 100 4.14848e-05ZM100 10C88.9544 10 80.0001 18.9543 80.0001 30C80.0001 41.0457 88.9544 50 100 50C111.046 50 120 41.0457 120 30C120 18.9544 111.046 10.0001 100 10Z" fill="#00B5FD"/>
</g>
<path d="M110 30C110 35.5229 105.523 40 100 40C94.4772 40 90 35.5229 90 30C90 24.4772 94.4772 20 100 20C105.523 20 110 24.4772 110 30Z" fill="#00ABF3"/>
</svg>
